<svg xmlns="http://www.w3.org/2000/svg" version="1.1" xmlns:xlink="http://www.w3.org/1999/xlink" xmlns:svgjs="http://svgjs.dev/svgjs" width="1000" height="623" viewBox="0 0 1000 623"><g transform="matrix(1,0,0,1,-0.6060606060606233,0.2522267206477409)"><svg viewBox="0 0 396 247" data-background-color="#6936f5" preserveAspectRatio="xMidYMid meet" height="623" width="1000" xmlns="http://www.w3.org/2000/svg" xmlns:xlink="http://www.w3.org/1999/xlink"><g id="tight-bounds" transform="matrix(1,0,0,1,0.2400000000000091,-0.09999999999999432)"><svg viewBox="0 0 395.52 247.2" height="247.2" width="395.52"><g><svg></svg></g><g><svg viewBox="0 0 395.52 247.2" height="247.2" width="395.52"><g transform="matrix(1,0,0,1,146.68192771084338,65.92)"><svg viewBox="0 0 102.15614457831323 115.35999999999999" height="115.35999999999999" width="102.15614457831323"><g><svg viewBox="0 0 102.15614457831323 115.35999999999999" height="115.35999999999999" width="102.15614457831323"><g><svg viewBox="0 0 102.15614457831323 115.35999999999999" height="115.35999999999999" width="102.15614457831323"><g><svg viewBox="0 0 102.15614457831323 115.35999999999999" height="115.35999999999999" width="102.15614457831323"><g id="textblocktransform"><svg viewBox="0 0 102.15614457831323 115.35999999999999" height="115.35999999999999" width="102.15614457831323" id="textblock"><g><svg viewBox="0 0 102.15614457831323 115.35999999999999" height="115.35999999999999" width="102.15614457831323"><g transform="matrix(1,0,0,1,0,0)"><svg width="102.15614457831323" viewBox="-2.399999976158142 -38.5 37.75 42.5" height="115.35999999999999" data-palette-color="#ffffff"><path d="M28.65-24.4L28.65-24.4Q28.65-21 26.53-18.7 24.4-16.4 21.2-15.2L21.2-15.2Q23.7-14.15 24.5-12.65L24.5-12.65 28.15-5.7Q30.5-4.9 31.35-3.85L31.35-3.85 30.85 0 22.4 0 16.65-12.25Q15.85-14.1 14.8-14.1L14.8-14.1 11.55-14.1 11.55-6.1Q15.2-5.3 16.1-4.15L16.1-4.15 15.6 0 2.1 0 1.6-4.15Q2.25-5 4.35-5.8L4.35-5.8 4.35-28.65Q2.3-29.4 1.6-30.35L1.6-30.35 2.1-34.5 14.85-34.5Q21.85-34.4 25.25-32.25 28.65-30.1 28.65-24.4ZM14.5-29.05L14.5-29.05 11.55-29.05 11.55-19.55 14.4-19.55Q17.8-19.55 19.48-20.58 21.15-21.6 21.15-24.25 21.15-26.9 19.45-27.98 17.75-29.05 14.5-29.05Z" opacity="1" transform="matrix(1,0,0,1,0,0)" fill="#ffffff" class="undefined-text-0" data-fill-palette-color="primary" id="text-0"></path></svg></g></svg></g></svg></g></svg></g></svg></g></svg></g></svg></g><g mask="url(#bed8ccc1-04ba-4277-ad07-7fce9104f457)"><g transform="matrix(10.594158986778522, 0, 0, 10.594158986778522, 1, 19.120409245319408)"><svg xmlns="http://www.w3.org/2000/svg" xmlns:xlink="http://www.w3.org/1999/xlink" version="1.1" x="0" y="0" viewBox="31.427001953125 40.13800048828125 37.144996643066406 19.7239990234375" enable-background="new 0 0 100 100" xml:space="preserve" height="19.7239990234375" width="37.144996643066406" class="icon-none" data-fill-palette-color="accent" id="none"><path d="M41.29 40.138l-9.863 9.861 9.863 9.862 2.557-2.557-7.305-7.306 7.305-7.303L41.29 40.138zM58.709 40.138l-2.557 2.558 7.305 7.303-7.305 7.306 2.557 2.557 9.863-9.862L58.709 40.138z" fill="#ffffff" data-fill-palette-color="accent"></path></svg></g></g><mask id="bed8ccc1-04ba-4277-ad07-7fce9104f457"><rect width="640" height="400" fill="white"></rect><g transform="matrix(1,0,0,1,146.68192771084338,65.92)"><svg viewBox="0 0 102.15614457831323 115.35999999999999" height="115.35999999999999" width="102.15614457831323"><g><svg viewBox="0 0 102.15614457831323 115.35999999999999" height="115.35999999999999" width="102.15614457831323"><g><svg viewBox="0 0 102.15614457831323 115.35999999999999" height="115.35999999999999" width="102.15614457831323"><g><svg viewBox="0 0 102.15614457831323 115.35999999999999" height="115.35999999999999" width="102.15614457831323"><g id="SvgjsG1248"><svg viewBox="0 0 102.15614457831323 115.35999999999999" height="115.35999999999999" width="102.15614457831323" id="SvgjsSvg1247"><g><svg viewBox="0 0 102.15614457831323 115.35999999999999" height="115.35999999999999" width="102.15614457831323"><g transform="matrix(1,0,0,1,0,0)"><svg width="102.15614457831323" viewBox="-2.399999976158142 -38.5 37.75 42.5" height="115.35999999999999" data-palette-color="#ffffff"><path d="M28.65-24.4L28.65-24.4Q28.65-21 26.53-18.7 24.4-16.4 21.2-15.2L21.2-15.2Q23.7-14.15 24.5-12.65L24.5-12.65 28.15-5.7Q30.5-4.9 31.35-3.85L31.35-3.85 30.85 0 22.4 0 16.65-12.25Q15.85-14.1 14.8-14.1L14.8-14.1 11.55-14.1 11.55-6.1Q15.2-5.3 16.1-4.15L16.1-4.15 15.6 0 2.1 0 1.6-4.15Q2.25-5 4.35-5.8L4.35-5.8 4.35-28.65Q2.3-29.4 1.6-30.35L1.6-30.35 2.1-34.5 14.85-34.5Q21.85-34.4 25.25-32.25 28.65-30.1 28.65-24.4ZM14.5-29.05L14.5-29.05 11.55-29.05 11.55-19.55 14.4-19.55Q17.8-19.55 19.48-20.58 21.15-21.6 21.15-24.25 21.15-26.9 19.45-27.98 17.75-29.05 14.5-29.05Z" opacity="1" transform="matrix(1,0,0,1,0,0)" fill="#ffffff" class="undefined-text-0" data-fill-palette-color="primary" id="SvgjsPath1246" stroke-width="7" stroke="black" stroke-linejoin="round"></path></svg></g></svg></g></svg></g></svg></g></svg></g></svg></g></svg></g></mask></svg></g><defs></defs></svg><rect width="395.52" height="247.2" fill="none" stroke="none" visibility="hidden"></rect></g></svg></g></svg>